<svg width="92" height="62" viewBox="0 0 92 62" fill="none" xmlns="http://www.w3.org/2000/svg">
<path d="M6.28218 58.22L2.34418 46.516C2.09485 45.7387 1.89685 45.13 1.75018 44.69C1.60351 44.2353 1.49351 43.8467 1.42018 43.524C1.21485 43.5387 1.00951 43.546 0.80418 43.546C0.598846 43.546 0.393513 43.5533 0.18818 43.568V42.6H5.53418V43.326C4.68351 43.37 4.17018 43.5607 3.99418 43.898C3.83285 44.2353 3.86951 44.844 4.10418 45.724C4.35351 46.692 4.62485 47.5647 4.91818 48.342C5.21151 49.1193 5.49751 49.9553 5.77618 50.85C5.98151 51.51 6.18685 52.1187 6.39218 52.676C6.61218 53.2333 6.83218 53.8567 7.05218 54.546H7.09618C7.16951 54.2967 7.24285 54.0327 7.31618 53.754C7.40418 53.4753 7.49218 53.204 7.58018 52.94C7.66818 52.676 7.74885 52.434 7.82218 52.214C7.89551 51.9793 7.95418 51.7887 7.99818 51.642C8.40885 50.3367 8.81218 49.0753 9.20818 47.858C9.61885 46.626 9.97818 45.548 10.2862 44.624C10.5942 43.6853 10.8068 42.996 10.9242 42.556H11.6282C11.7602 43.04 11.9508 43.656 12.2002 44.404C12.4495 45.152 12.7135 45.9367 12.9922 46.758C13.2708 47.5793 13.5275 48.3567 13.7622 49.09C14.0115 49.8233 14.2095 50.41 14.3562 50.85C14.5615 51.51 14.7742 52.1627 14.9942 52.808C15.2288 53.4533 15.4415 54.1207 15.6322 54.81H15.6982C15.8302 54.3847 15.9695 53.93 16.1162 53.446C16.2775 52.962 16.4388 52.4707 16.6002 51.972C16.9815 50.8867 17.2895 49.9773 17.5242 49.244C17.7735 48.5107 17.9715 47.902 18.1182 47.418C18.2795 46.934 18.4115 46.516 18.5142 46.164C18.6315 45.7973 18.7488 45.4453 18.8662 45.108C18.9542 44.8587 19.0495 44.5947 19.1522 44.316C19.2695 44.0227 19.4015 43.7513 19.5482 43.502C19.2548 43.5167 18.9615 43.5313 18.6682 43.546C18.3748 43.546 18.0815 43.5533 17.7882 43.568V42.6H22.2542V43.326C21.7555 43.3847 21.3595 43.4947 21.0662 43.656C20.7875 43.8173 20.5382 44.118 20.3182 44.558C20.0982 44.998 19.8342 45.6727 19.5262 46.582C18.8515 48.5767 18.1915 50.542 17.5462 52.478C16.9155 54.3993 16.2555 56.3133 15.5662 58.22H14.9062L11.5622 48.672C11.4302 48.2907 11.2982 47.9167 11.1662 47.55C11.0488 47.1833 10.9242 46.8167 10.7922 46.45C10.6748 46.8167 10.5502 47.1833 10.4182 47.55C10.3008 47.9167 10.1835 48.2833 10.0662 48.65L6.92018 58.22H6.28218ZM27.3594 58.352C26.3474 58.352 25.4307 58.1173 24.6094 57.648C23.8027 57.164 23.1647 56.4893 22.6954 55.624C22.226 54.744 21.9914 53.71 21.9914 52.522C21.9914 51.4953 22.2187 50.5347 22.6734 49.64C23.1427 48.7453 23.7954 48.0267 24.6314 47.484C25.4674 46.9267 26.4354 46.648 27.5354 46.648C28.1514 46.648 28.7234 46.7507 29.2514 46.956C29.794 47.1467 30.2707 47.4473 30.6814 47.858C31.0921 48.254 31.4147 48.76 31.6494 49.376C31.884 49.9773 32.0014 50.6887 32.0014 51.51L24.2574 51.642C24.2574 52.7567 24.3747 53.7393 24.6094 54.59C24.8587 55.426 25.2547 56.0787 25.7974 56.548C26.34 57.0027 27.0367 57.23 27.8874 57.23C28.342 57.23 28.804 57.1493 29.2734 56.988C29.7574 56.8267 30.2047 56.6067 30.6154 56.328C31.026 56.0493 31.356 55.7413 31.6054 55.404L32.1334 55.844C31.7374 56.46 31.2607 56.9513 30.7034 57.318C30.146 57.6847 29.574 57.9487 28.9874 58.11C28.4007 58.2713 27.858 58.352 27.3594 58.352ZM24.3234 50.718H29.9334C29.9334 50.19 29.8527 49.684 29.6914 49.2C29.5447 48.7013 29.2954 48.298 28.9434 47.99C28.5914 47.6673 28.1294 47.506 27.5574 47.506C26.7067 47.506 25.9954 47.7627 25.4234 48.276C24.866 48.7747 24.4994 49.5887 24.3234 50.718ZM33.7392 57.34C34.1939 57.34 34.5092 57.23 34.6852 57.01C34.8612 56.7753 34.9639 56.46 34.9932 56.064C35.0225 55.6533 35.0372 55.184 35.0372 54.656V44.25C35.0372 44.0153 35.0372 43.7953 35.0372 43.59C35.0519 43.37 35.0739 43.1133 35.1032 42.82C34.8392 42.8347 34.5752 42.8493 34.3112 42.864C34.0619 42.8787 33.8052 42.8933 33.5412 42.908V41.984C34.1865 41.984 34.6852 41.9547 35.0372 41.896C35.4039 41.8373 35.6752 41.764 35.8512 41.676C36.0419 41.588 36.1885 41.4927 36.2912 41.39H36.9292L36.9512 55.668C36.9512 55.9613 36.9439 56.2253 36.9292 56.46C36.9145 56.68 36.8852 56.9147 36.8412 57.164C37.0759 57.1493 37.3032 57.142 37.5232 57.142C37.7579 57.1273 37.9925 57.1127 38.2272 57.098V58H33.7392V57.34ZM39.7334 57.34C40.188 57.34 40.5034 57.23 40.6794 57.01C40.8554 56.7753 40.958 56.46 40.9874 56.064C41.0167 55.6533 41.0314 55.184 41.0314 54.656V44.25C41.0314 44.0153 41.0314 43.7953 41.0314 43.59C41.046 43.37 41.068 43.1133 41.0974 42.82C40.8334 42.8347 40.5694 42.8493 40.3054 42.864C40.056 42.8787 39.7994 42.8933 39.5354 42.908V41.984C40.1807 41.984 40.6794 41.9547 41.0314 41.896C41.398 41.8373 41.6694 41.764 41.8454 41.676C42.036 41.588 42.1827 41.4927 42.2854 41.39H42.9234L42.9454 55.668C42.9454 55.9613 42.938 56.2253 42.9234 56.46C42.9087 56.68 42.8794 56.9147 42.8354 57.164C43.07 57.1493 43.2974 57.142 43.5174 57.142C43.752 57.1273 43.9867 57.1127 44.2214 57.098V58H39.7334V57.34ZM58.0516 58.352L49.2736 46.56C49.1416 46.384 49.0096 46.2153 48.8776 46.054C48.7603 45.878 48.6356 45.702 48.5036 45.526H48.4816L48.5476 54.942C48.5476 55.3087 48.5476 55.6753 48.5476 56.042C48.5476 56.4087 48.533 56.768 48.5036 57.12C48.7676 57.1053 49.0316 57.0907 49.2956 57.076C49.5596 57.0613 49.8236 57.0467 50.0876 57.032V58H46.0616V57.274C46.5163 57.274 46.839 57.1787 47.0296 56.988C47.235 56.7827 47.367 56.548 47.4256 56.284C47.4843 56.0053 47.5136 55.756 47.5136 55.536L47.5356 44.954C47.5356 44.7047 47.5356 44.4553 47.5356 44.206C47.5356 43.9567 47.5356 43.7147 47.5356 43.48C47.301 43.4947 47.059 43.5093 46.8096 43.524C46.5603 43.5387 46.311 43.5533 46.0616 43.568V42.6H48.6796L56.9296 53.644C57.1203 53.8933 57.3036 54.1427 57.4796 54.392C57.6703 54.6413 57.861 54.8907 58.0516 55.14H58.0736L58.0956 45.064C58.0956 44.7707 58.103 44.492 58.1176 44.228C58.1323 43.9493 58.147 43.7 58.1616 43.48C57.8976 43.4947 57.6336 43.5093 57.3696 43.524C57.1056 43.5387 56.8416 43.5533 56.5776 43.568V42.6H60.6256V43.326C60.083 43.3407 59.709 43.4653 59.5036 43.7C59.2983 43.9347 59.1883 44.25 59.1736 44.646C59.159 45.042 59.1516 45.504 59.1516 46.032L59.1076 58.352H58.0516ZM67.6426 58.352C66.6306 58.352 65.7139 58.1173 64.8926 57.648C64.0859 57.164 63.4479 56.4893 62.9786 55.624C62.5093 54.744 62.2746 53.71 62.2746 52.522C62.2746 51.4953 62.5019 50.5347 62.9566 49.64C63.4259 48.7453 64.0786 48.0267 64.9146 47.484C65.7506 46.9267 66.7186 46.648 67.8186 46.648C68.4346 46.648 69.0066 46.7507 69.5346 46.956C70.0773 47.1467 70.5539 47.4473 70.9646 47.858C71.3753 48.254 71.6979 48.76 71.9326 49.376C72.1673 49.9773 72.2846 50.6887 72.2846 51.51L64.5406 51.642C64.5406 52.7567 64.6579 53.7393 64.8926 54.59C65.1419 55.426 65.5379 56.0787 66.0806 56.548C66.6233 57.0027 67.3199 57.23 68.1706 57.23C68.6253 57.23 69.0873 57.1493 69.5566 56.988C70.0406 56.8267 70.4879 56.6067 70.8986 56.328C71.3093 56.0493 71.6393 55.7413 71.8886 55.404L72.4166 55.844C72.0206 56.46 71.5439 56.9513 70.9866 57.318C70.4293 57.6847 69.8573 57.9487 69.2706 58.11C68.6839 58.2713 68.1413 58.352 67.6426 58.352ZM64.6066 50.718H70.2166C70.2166 50.19 70.1359 49.684 69.9746 49.2C69.8279 48.7013 69.5786 48.298 69.2266 47.99C68.8746 47.6673 68.4126 47.506 67.8406 47.506C66.9899 47.506 66.2786 47.7627 65.7066 48.276C65.1493 48.7747 64.7826 49.5887 64.6066 50.718ZM78.7524 58.352C78.0191 58.352 77.3664 58.2493 76.7944 58.044C76.2224 57.8533 75.7531 57.6333 75.3864 57.384L75.4744 58.154H74.5504L74.4184 54.37H75.1004C75.1297 54.9713 75.2984 55.514 75.6064 55.998C75.9144 56.4673 76.3104 56.834 76.7944 57.098C77.2784 57.362 77.7991 57.494 78.3564 57.494C78.7377 57.494 79.1117 57.4353 79.4784 57.318C79.8451 57.186 80.1531 56.9953 80.4024 56.746C80.6517 56.482 80.7764 56.152 80.7764 55.756C80.7764 55.3453 80.6517 55.008 80.4024 54.744C80.1677 54.4653 79.8524 54.2233 79.4564 54.018C79.0604 53.8127 78.6351 53.622 78.1804 53.446C77.7404 53.27 77.3004 53.0867 76.8604 52.896C76.4204 52.7053 76.0097 52.478 75.6284 52.214C75.2617 51.95 74.9684 51.6273 74.7484 51.246C74.5284 50.8647 74.4184 50.3953 74.4184 49.838C74.4184 49.53 74.4771 49.1927 74.5944 48.826C74.7117 48.4593 74.9097 48.1147 75.1884 47.792C75.4671 47.4547 75.8484 47.1833 76.3324 46.978C76.8164 46.758 77.4324 46.648 78.1804 46.648C78.5764 46.648 79.0164 46.714 79.5004 46.846C79.9844 46.978 80.4537 47.2273 80.9084 47.594L80.8644 46.758H81.7884V50.608H81.0844C81.0551 50.0947 80.9377 49.6033 80.7324 49.134C80.5271 48.65 80.2264 48.254 79.8304 47.946C79.4344 47.6233 78.9211 47.462 78.2904 47.462C77.6157 47.462 77.0877 47.6307 76.7064 47.968C76.3251 48.3053 76.1344 48.694 76.1344 49.134C76.1344 49.5887 76.2737 49.97 76.5524 50.278C76.8457 50.5713 77.2197 50.828 77.6744 51.048C78.1291 51.268 78.6131 51.4807 79.1264 51.686C79.6837 51.9207 80.2264 52.1773 80.7544 52.456C81.2824 52.7347 81.7151 53.0867 82.0524 53.512C82.3897 53.9227 82.5584 54.458 82.5584 55.118C82.5584 55.8513 82.3677 56.46 81.9864 56.944C81.6197 57.428 81.1431 57.78 80.5564 58C79.9844 58.2347 79.3831 58.352 78.7524 58.352ZM88.562 58.352C88.2247 58.352 87.88 58.3007 87.528 58.198C87.176 58.11 86.846 57.9267 86.538 57.648C86.2447 57.3693 86.01 56.966 85.834 56.438C85.658 55.8953 85.57 55.184 85.57 54.304L85.614 47.924L83.92 47.946V47C84.3013 46.9853 84.69 46.846 85.086 46.582C85.482 46.3033 85.834 45.9293 86.142 45.46C86.4647 44.9907 86.6847 44.4773 86.802 43.92H87.55V47H91.246V47.858L87.55 47.902L87.506 54.018C87.506 54.678 87.5573 55.2427 87.66 55.712C87.7773 56.1667 87.9607 56.5113 88.21 56.746C88.4593 56.9807 88.782 57.098 89.178 57.098C89.5887 57.098 89.97 56.9807 90.322 56.746C90.6887 56.5113 91.0113 56.1887 91.29 55.778L91.884 56.262C91.5613 56.746 91.2387 57.1273 90.916 57.406C90.608 57.6847 90.3073 57.89 90.014 58.022C89.7207 58.1687 89.4493 58.2567 89.2 58.286C88.9507 58.33 88.738 58.352 88.562 58.352Z" fill="#F6F6F6"/>
<path d="M46.1682 1.5C47.7746 1.5 49.2639 2.34997 50.3674 3.79297C51.4713 5.23651 52.1682 7.25281 52.1682 9.5C52.1682 11.7472 51.4713 13.7635 50.3674 15.207C49.2639 16.65 47.7746 17.5 46.1682 17.5C44.5618 17.5 43.0725 16.65 41.969 15.207C40.8651 13.7635 40.1682 11.7472 40.1682 9.5C40.1682 7.25281 40.8651 5.23651 41.969 3.79297C43.0725 2.34997 44.5618 1.5 46.1682 1.5Z" fill="#F6F6F6" stroke="#F6F6F6"/>
<path d="M45.1682 3.5C46.8858 3.5 48.4168 3.9297 49.5022 4.59766C50.5957 5.27059 51.1682 6.13382 51.1682 7C51.1682 7.86618 50.5957 8.72941 49.5022 9.40234C48.4168 10.0703 46.8858 10.5 45.1682 10.5C43.4506 10.5 41.9197 10.0703 40.8342 9.40234C39.7407 8.72941 39.1682 7.86618 39.1682 7C39.1682 6.13382 39.7407 5.27059 40.8342 4.59766C41.9197 3.9297 43.4506 3.5 45.1682 3.5Z" fill="#F6F6F6" stroke="#F6F6F6"/>
<path d="M62.6542 17.3373C63.0034 17.7056 63.191 18.2552 63.1697 19.0018C63.1483 19.7513 62.9152 20.6598 62.4703 21.6746C61.5812 23.7025 59.8845 26.0613 57.5784 28.2485C55.2724 30.4355 52.8278 32.0046 50.7558 32.7852C49.7187 33.176 48.7987 33.3612 48.0491 33.3429C47.3024 33.3247 46.7635 33.1084 46.4141 32.7401C46.0648 32.3718 45.8774 31.8221 45.8986 31.0755C45.92 30.326 46.1529 29.4164 46.5979 28.4014C47.4871 26.3736 49.1833 24.0153 51.4892 21.8282C53.7952 19.641 56.2404 18.0714 58.3125 17.2908C59.3495 16.9001 60.2696 16.7162 61.0192 16.7345C61.7659 16.7527 62.3048 16.9689 62.6542 17.3373Z" fill="#F6F6F6" stroke="#F6F6F6"/>
<path d="M29.7889 18.2926C29.0526 19.0952 28.9886 20.583 29.7887 22.5336C30.5722 24.4439 32.124 26.6234 34.2737 28.596C36.4234 30.5686 38.7286 31.9282 40.6992 32.5449C42.7111 33.1745 44.1882 32.9832 44.9246 32.1809C45.6609 31.3784 45.7246 29.8904 44.9248 27.9398C44.1413 26.0294 42.5888 23.8494 40.439 21.8768C38.2893 19.9043 35.9847 18.5452 34.0142 17.9285C32.0021 17.2988 30.5252 17.4901 29.7889 18.2926Z" fill="#F6F6F6" stroke="#F6F6F6"/>
<path d="M43.6682 24.0391C44.4853 25.764 45.9338 30.1139 45.1911 33.7142" stroke="#F6F6F6" stroke-width="2"/>
<path d="M48.2581 23.8398C47.1254 25.495 45.001 29.7526 45.565 33.5413" stroke="#F6F6F6" stroke-width="2"/>
<path d="M46.0812 26.2527C52.6469 18.1719 59.9702 16.4673 62.8111 16.6251C63.4425 30.2616 51.9209 33.8811 46.0812 33.9864C30.2983 32.9763 28.6673 21.9913 29.8248 16.6251C36.2642 17.3827 43.3455 23.3592 46.0812 26.2527ZM46.0812 26.2527V18.8347M46.0812 18.8347C52.3944 14.889 57.6028 3.20961 46.0812 1C40.2415 1 32.6973 8.60738 46.0812 18.8347Z" stroke="#F6F6F6" stroke-width="2"/>
</svg>
