<svg width="95" height="62" viewBox="0 0 95 62" fill="none" xmlns="http://www.w3.org/2000/svg">
<path d="M7.78218 58.22L3.84418 46.516C3.59485 45.7387 3.39685 45.13 3.25018 44.69C3.10351 44.2353 2.99351 43.8467 2.92018 43.524C2.71485 43.5387 2.50951 43.546 2.30418 43.546C2.09885 43.546 1.89351 43.5533 1.68818 43.568V42.6H7.03418V43.326C6.18351 43.37 5.67018 43.5607 5.49418 43.898C5.33285 44.2353 5.36951 44.844 5.60418 45.724C5.85351 46.692 6.12485 47.5647 6.41818 48.342C6.71151 49.1193 6.99751 49.9553 7.27618 50.85C7.48151 51.51 7.68685 52.1187 7.89218 52.676C8.11218 53.2333 8.33218 53.8567 8.55218 54.546H8.59618C8.66951 54.2967 8.74285 54.0327 8.81618 53.754C8.90418 53.4753 8.99218 53.204 9.08018 52.94C9.16818 52.676 9.24885 52.434 9.32218 52.214C9.39551 51.9793 9.45418 51.7887 9.49818 51.642C9.90885 50.3367 10.3122 49.0753 10.7082 47.858C11.1188 46.626 11.4782 45.548 11.7862 44.624C12.0942 43.6853 12.3068 42.996 12.4242 42.556H13.1282C13.2602 43.04 13.4508 43.656 13.7002 44.404C13.9495 45.152 14.2135 45.9367 14.4922 46.758C14.7708 47.5793 15.0275 48.3567 15.2622 49.09C15.5115 49.8233 15.7095 50.41 15.8562 50.85C16.0615 51.51 16.2742 52.1627 16.4942 52.808C16.7288 53.4533 16.9415 54.1207 17.1322 54.81H17.1982C17.3302 54.3847 17.4695 53.93 17.6162 53.446C17.7775 52.962 17.9388 52.4707 18.1002 51.972C18.4815 50.8867 18.7895 49.9773 19.0242 49.244C19.2735 48.5107 19.4715 47.902 19.6182 47.418C19.7795 46.934 19.9115 46.516 20.0142 46.164C20.1315 45.7973 20.2488 45.4453 20.3662 45.108C20.4542 44.8587 20.5495 44.5947 20.6522 44.316C20.7695 44.0227 20.9015 43.7513 21.0482 43.502C20.7548 43.5167 20.4615 43.5313 20.1682 43.546C19.8748 43.546 19.5815 43.5533 19.2882 43.568V42.6H23.7542V43.326C23.2555 43.3847 22.8595 43.4947 22.5662 43.656C22.2875 43.8173 22.0382 44.118 21.8182 44.558C21.5982 44.998 21.3342 45.6727 21.0262 46.582C20.3515 48.5767 19.6915 50.542 19.0462 52.478C18.4155 54.3993 17.7555 56.3133 17.0662 58.22H16.4062L13.0622 48.672C12.9302 48.2907 12.7982 47.9167 12.6662 47.55C12.5488 47.1833 12.4242 46.8167 12.2922 46.45C12.1748 46.8167 12.0502 47.1833 11.9182 47.55C11.8008 47.9167 11.6835 48.2833 11.5662 48.65L8.42018 58.22H7.78218ZM28.8594 58.352C27.8474 58.352 26.9307 58.1173 26.1094 57.648C25.3027 57.164 24.6647 56.4893 24.1954 55.624C23.726 54.744 23.4914 53.71 23.4914 52.522C23.4914 51.4953 23.7187 50.5347 24.1734 49.64C24.6427 48.7453 25.2954 48.0267 26.1314 47.484C26.9674 46.9267 27.9354 46.648 29.0354 46.648C29.6514 46.648 30.2234 46.7507 30.7514 46.956C31.294 47.1467 31.7707 47.4473 32.1814 47.858C32.5921 48.254 32.9147 48.76 33.1494 49.376C33.384 49.9773 33.5014 50.6887 33.5014 51.51L25.7574 51.642C25.7574 52.7567 25.8747 53.7393 26.1094 54.59C26.3587 55.426 26.7547 56.0787 27.2974 56.548C27.84 57.0027 28.5367 57.23 29.3874 57.23C29.842 57.23 30.304 57.1493 30.7734 56.988C31.2574 56.8267 31.7047 56.6067 32.1154 56.328C32.526 56.0493 32.856 55.7413 33.1054 55.404L33.6334 55.844C33.2374 56.46 32.7607 56.9513 32.2034 57.318C31.646 57.6847 31.074 57.9487 30.4874 58.11C29.9007 58.2713 29.358 58.352 28.8594 58.352ZM25.8234 50.718H31.4334C31.4334 50.19 31.3527 49.684 31.1914 49.2C31.0447 48.7013 30.7954 48.298 30.4434 47.99C30.0914 47.6673 29.6294 47.506 29.0574 47.506C28.2067 47.506 27.4954 47.7627 26.9234 48.276C26.366 48.7747 25.9994 49.5887 25.8234 50.718ZM35.2392 57.34C35.6939 57.34 36.0092 57.23 36.1852 57.01C36.3612 56.7753 36.4639 56.46 36.4932 56.064C36.5225 55.6533 36.5372 55.184 36.5372 54.656V44.25C36.5372 44.0153 36.5372 43.7953 36.5372 43.59C36.5519 43.37 36.5739 43.1133 36.6032 42.82C36.3392 42.8347 36.0752 42.8493 35.8112 42.864C35.5619 42.8787 35.3052 42.8933 35.0412 42.908V41.984C35.6865 41.984 36.1852 41.9547 36.5372 41.896C36.9039 41.8373 37.1752 41.764 37.3512 41.676C37.5419 41.588 37.6885 41.4927 37.7912 41.39H38.4292L38.4512 55.668C38.4512 55.9613 38.4439 56.2253 38.4292 56.46C38.4145 56.68 38.3852 56.9147 38.3412 57.164C38.5759 57.1493 38.8032 57.142 39.0232 57.142C39.2579 57.1273 39.4925 57.1127 39.7272 57.098V58H35.2392V57.34ZM41.2334 57.34C41.688 57.34 42.0034 57.23 42.1794 57.01C42.3554 56.7753 42.458 56.46 42.4874 56.064C42.5167 55.6533 42.5314 55.184 42.5314 54.656V44.25C42.5314 44.0153 42.5314 43.7953 42.5314 43.59C42.546 43.37 42.568 43.1133 42.5974 42.82C42.3334 42.8347 42.0694 42.8493 41.8054 42.864C41.556 42.8787 41.2994 42.8933 41.0354 42.908V41.984C41.6807 41.984 42.1794 41.9547 42.5314 41.896C42.898 41.8373 43.1694 41.764 43.3454 41.676C43.536 41.588 43.6827 41.4927 43.7854 41.39H44.4234L44.4454 55.668C44.4454 55.9613 44.438 56.2253 44.4234 56.46C44.4087 56.68 44.3794 56.9147 44.3354 57.164C44.57 57.1493 44.7974 57.142 45.0174 57.142C45.252 57.1273 45.4867 57.1127 45.7214 57.098V58H41.2334V57.34ZM59.5516 58.352L50.7736 46.56C50.6416 46.384 50.5096 46.2153 50.3776 46.054C50.2603 45.878 50.1356 45.702 50.0036 45.526H49.9816L50.0476 54.942C50.0476 55.3087 50.0476 55.6753 50.0476 56.042C50.0476 56.4087 50.033 56.768 50.0036 57.12C50.2676 57.1053 50.5316 57.0907 50.7956 57.076C51.0596 57.0613 51.3236 57.0467 51.5876 57.032V58H47.5616V57.274C48.0163 57.274 48.339 57.1787 48.5296 56.988C48.735 56.7827 48.867 56.548 48.9256 56.284C48.9843 56.0053 49.0136 55.756 49.0136 55.536L49.0356 44.954C49.0356 44.7047 49.0356 44.4553 49.0356 44.206C49.0356 43.9567 49.0356 43.7147 49.0356 43.48C48.801 43.4947 48.559 43.5093 48.3096 43.524C48.0603 43.5387 47.811 43.5533 47.5616 43.568V42.6H50.1796L58.4296 53.644C58.6203 53.8933 58.8036 54.1427 58.9796 54.392C59.1703 54.6413 59.361 54.8907 59.5516 55.14H59.5736L59.5956 45.064C59.5956 44.7707 59.603 44.492 59.6176 44.228C59.6323 43.9493 59.647 43.7 59.6616 43.48C59.3976 43.4947 59.1336 43.5093 58.8696 43.524C58.6056 43.5387 58.3416 43.5533 58.0776 43.568V42.6H62.1256V43.326C61.583 43.3407 61.209 43.4653 61.0036 43.7C60.7983 43.9347 60.6883 44.25 60.6736 44.646C60.659 45.042 60.6516 45.504 60.6516 46.032L60.6076 58.352H59.5516ZM69.1426 58.352C68.1306 58.352 67.2139 58.1173 66.3926 57.648C65.5859 57.164 64.9479 56.4893 64.4786 55.624C64.0093 54.744 63.7746 53.71 63.7746 52.522C63.7746 51.4953 64.0019 50.5347 64.4566 49.64C64.9259 48.7453 65.5786 48.0267 66.4146 47.484C67.2506 46.9267 68.2186 46.648 69.3186 46.648C69.9346 46.648 70.5066 46.7507 71.0346 46.956C71.5773 47.1467 72.0539 47.4473 72.4646 47.858C72.8753 48.254 73.1979 48.76 73.4326 49.376C73.6673 49.9773 73.7846 50.6887 73.7846 51.51L66.0406 51.642C66.0406 52.7567 66.1579 53.7393 66.3926 54.59C66.6419 55.426 67.0379 56.0787 67.5806 56.548C68.1233 57.0027 68.8199 57.23 69.6706 57.23C70.1253 57.23 70.5873 57.1493 71.0566 56.988C71.5406 56.8267 71.9879 56.6067 72.3986 56.328C72.8093 56.0493 73.1393 55.7413 73.3886 55.404L73.9166 55.844C73.5206 56.46 73.0439 56.9513 72.4866 57.318C71.9293 57.6847 71.3573 57.9487 70.7706 58.11C70.1839 58.2713 69.6413 58.352 69.1426 58.352ZM66.1066 50.718H71.7166C71.7166 50.19 71.6359 49.684 71.4746 49.2C71.3279 48.7013 71.0786 48.298 70.7266 47.99C70.3746 47.6673 69.9126 47.506 69.3406 47.506C68.4899 47.506 67.7786 47.7627 67.2066 48.276C66.6493 48.7747 66.2826 49.5887 66.1066 50.718ZM80.2524 58.352C79.5191 58.352 78.8664 58.2493 78.2944 58.044C77.7224 57.8533 77.2531 57.6333 76.8864 57.384L76.9744 58.154H76.0504L75.9184 54.37H76.6004C76.6297 54.9713 76.7984 55.514 77.1064 55.998C77.4144 56.4673 77.8104 56.834 78.2944 57.098C78.7784 57.362 79.2991 57.494 79.8564 57.494C80.2377 57.494 80.6117 57.4353 80.9784 57.318C81.3451 57.186 81.6531 56.9953 81.9024 56.746C82.1517 56.482 82.2764 56.152 82.2764 55.756C82.2764 55.3453 82.1517 55.008 81.9024 54.744C81.6677 54.4653 81.3524 54.2233 80.9564 54.018C80.5604 53.8127 80.1351 53.622 79.6804 53.446C79.2404 53.27 78.8004 53.0867 78.3604 52.896C77.9204 52.7053 77.5097 52.478 77.1284 52.214C76.7617 51.95 76.4684 51.6273 76.2484 51.246C76.0284 50.8647 75.9184 50.3953 75.9184 49.838C75.9184 49.53 75.9771 49.1927 76.0944 48.826C76.2117 48.4593 76.4097 48.1147 76.6884 47.792C76.9671 47.4547 77.3484 47.1833 77.8324 46.978C78.3164 46.758 78.9324 46.648 79.6804 46.648C80.0764 46.648 80.5164 46.714 81.0004 46.846C81.4844 46.978 81.9537 47.2273 82.4084 47.594L82.3644 46.758H83.2884V50.608H82.5844C82.5551 50.0947 82.4377 49.6033 82.2324 49.134C82.0271 48.65 81.7264 48.254 81.3304 47.946C80.9344 47.6233 80.4211 47.462 79.7904 47.462C79.1157 47.462 78.5877 47.6307 78.2064 47.968C77.8251 48.3053 77.6344 48.694 77.6344 49.134C77.6344 49.5887 77.7737 49.97 78.0524 50.278C78.3457 50.5713 78.7197 50.828 79.1744 51.048C79.6291 51.268 80.1131 51.4807 80.6264 51.686C81.1837 51.9207 81.7264 52.1773 82.2544 52.456C82.7824 52.7347 83.2151 53.0867 83.5524 53.512C83.8897 53.9227 84.0584 54.458 84.0584 55.118C84.0584 55.8513 83.8677 56.46 83.4864 56.944C83.1197 57.428 82.6431 57.78 82.0564 58C81.4844 58.2347 80.8831 58.352 80.2524 58.352ZM90.062 58.352C89.7247 58.352 89.38 58.3007 89.028 58.198C88.676 58.11 88.346 57.9267 88.038 57.648C87.7447 57.3693 87.51 56.966 87.334 56.438C87.158 55.8953 87.07 55.184 87.07 54.304L87.114 47.924L85.42 47.946V47C85.8013 46.9853 86.19 46.846 86.586 46.582C86.982 46.3033 87.334 45.9293 87.642 45.46C87.9647 44.9907 88.1847 44.4773 88.302 43.92H89.05V47H92.746V47.858L89.05 47.902L89.006 54.018C89.006 54.678 89.0573 55.2427 89.16 55.712C89.2773 56.1667 89.4607 56.5113 89.71 56.746C89.9593 56.9807 90.282 57.098 90.678 57.098C91.0887 57.098 91.47 56.9807 91.822 56.746C92.1887 56.5113 92.5113 56.1887 92.79 55.778L93.384 56.262C93.0613 56.746 92.7387 57.1273 92.416 57.406C92.108 57.6847 91.8073 57.89 91.514 58.022C91.2207 58.1687 90.9493 58.2567 90.7 58.286C90.4507 58.33 90.238 58.352 90.062 58.352Z" fill="#446F5B"/>
<ellipse cx="47.6737" cy="9.5" rx="6.71196" ry="8.5" fill="#9DBDD2"/>
<ellipse cx="46.641" cy="7" rx="6.71196" ry="4" fill="#9DBDD2"/>
<ellipse cx="5.00114" cy="11.8935" rx="5.00114" ry="11.8935" transform="matrix(0.6997 0.714437 -0.736483 0.676456 61.5723 13.4199)" fill="#9DBDD2"/>
<ellipse cx="5.13545" cy="10.9629" rx="5.13545" ry="10.9629" transform="matrix(-0.687797 0.725904 0.747514 0.664246 33.9121 14.2266)" fill="#9DBDD2"/>
<path d="M45.0922 24.0396C45.9359 25.7645 47.4316 30.1144 46.6647 33.7147" stroke="#446F5B" stroke-width="2"/>
<path d="M49.8317 23.8403C48.6621 25.4955 46.4684 29.7531 47.0507 33.5418" stroke="#446F5B" stroke-width="2"/>
<path d="M47.5838 26.2527C54.3636 18.1719 61.9257 16.4673 64.8593 16.6251C65.5112 30.2616 53.6139 33.8811 47.5838 33.9864C31.2862 32.9763 29.6021 21.9913 30.7973 16.6251C37.4467 17.3827 44.7589 23.3592 47.5838 26.2527ZM47.5838 26.2527V18.8347M47.5838 18.8347C54.1029 14.889 59.4811 3.20961 47.5838 1C41.5537 1 33.7634 8.60738 47.5838 18.8347Z" stroke="#446F5B" stroke-width="2"/>
</svg>
