<svg width="40" height="40" viewBox="0 0 40 40" fill="none" xmlns="http://www.w3.org/2000/svg">
<g clip-path="url(#clip0_968_351)">
<mask id="mask0_968_351" style="mask-type:luminance" maskUnits="userSpaceOnUse" x="0" y="0" width="40" height="40">
<path d="M40 0H0V40H40V0Z" fill="white"/>
</mask>
<g mask="url(#mask0_968_351)">
<path fill-rule="evenodd" clip-rule="evenodd" d="M20 40C31.0457 40 40 31.0457 40 20C40 8.95428 31.0457 0 20 0C8.95428 0 0 8.95428 0 20C0 31.0457 8.95428 40 20 40ZM17.2467 23.4833L17.2458 15.9376L24.4508 19.7234L17.2467 23.4833ZM33.0667 14.6301C33.0667 14.6301 32.8058 12.7796 32.0067 11.9647C30.9925 10.8946 29.8558 10.8896 29.335 10.8274C25.6033 10.5556 20.0058 10.5556 20.0058 10.5556H19.9942C19.9942 10.5556 14.3967 10.5556 10.665 10.8274C10.1433 10.8896 9.0075 10.8946 7.9925 11.9647C7.19333 12.7796 6.93333 14.6301 6.93333 14.6301C6.93333 14.6301 6.66667 16.8037 6.66667 18.9766V21.0142C6.66667 23.1879 6.93333 25.3607 6.93333 25.3607C6.93333 25.3607 7.19333 27.2112 7.9925 28.0261C9.0075 29.0962 10.34 29.0626 10.9333 29.1742C13.0667 29.3807 20 29.4444 20 29.4444C20 29.4444 25.6033 29.4361 29.335 29.1641C29.8558 29.1012 30.9925 29.0962 32.0067 28.0261C32.8058 27.2112 33.0667 25.3607 33.0667 25.3607C33.0667 25.3607 33.3333 23.1879 33.3333 21.0142V18.9766C33.3333 16.8037 33.0667 14.6301 33.0667 14.6301Z" fill="#FFFCF7"/>
</g>
</g>
<defs>
<clipPath id="clip0_968_351">
<rect width="40" height="40" fill="white"/>
</clipPath>
</defs>
</svg>
